<?xml version="1.0" encoding="iso-8859-1"?>
<!-- Generator: Adobe Illustrator 19.0.0, SVG Export Plug-In . SVG Version: 6.00 Build 0)  -->
<svg version="1.1" id="Capa_1" xmlns="http://www.w3.org/2000/svg" xmlns:xlink="http://www.w3.org/1999/xlink" x="0px" y="0px"
	 viewBox="0 0 512 512" style="enable-background:new 0 0 512 512;" xml:space="preserve">
<path style="fill:#A0D468;" d="M488,36H24c-8.8,0-16,7.2-16,16v304h0.4H504V52C504,43.2,496.8,36,488,36z"/>
<path style="fill:#8CC152;" d="M488,36h-32c8.8,0,16,7.2,16,16v304h32V52C504,43.2,496.8,36,488,36z"/>
<path style="fill:#F5F7FA;" d="M184,452h144h16c8.88,0,16,7.128,16,16v8H152v-8c0-8.872,7.12-16,16-16H184z"/>
<polygon style="fill:#E6E9ED;" points="312,388 328,452 184,452 200,388 "/>
<path style="fill:#F5F7FA;" d="M8.4,356H160h192h152v16c0,8.8-7.2,16-16,16H312H200H24c-8.8,0-16-7.2-16-16v-16H8.4z"/>
<path style="fill:#E6E9ED;" d="M472,356v16c0,8.8-7.2,16-16,16h32c8.8,0,16-7.2,16-16v-16H472z"/>
<path style="fill:#656D78;" d="M208,140l-24,16.16V132c0-35.44,28.64-64,64-64h48v32c17.68,0,32,14.32,32,32v24.16L304,140
	c0,0-16.08,8-44,8S208,140,208,140z"/>
<path style="fill:#434A54;" d="M296,100V68h-32v48c17.68,0,32,6.32,32,24v2.96c5.144-1.592,8-2.96,8-2.96l24,16.16V132
	C328,114.32,313.68,100,296,100z"/>
<path style="fill:#EAC6BB;" d="M328,156.16V180c0,28.24-16.32,52.72-40,64.48c-9.6,4.8-20.56,7.52-32,7.52s-22.4-2.72-32-7.52
	c-23.6-11.68-39.84-36-40-64.08V180v-23.84L208,140c0,0,24.08,8,52,8s44-8,44-8L328,156.16z"/>
<path style="fill:#D3B1A9;" d="M304,140c0,0-2.856,1.36-8,2.96V180c0,28.24-16.32,52.72-40,64.48c-5,2.504-10.384,4.4-16,5.68
	c5.168,1.176,10.52,1.832,16,1.832c11.44,0,22.4-2.72,32-7.52c23.68-11.76,40-36.24,40-64.48v-23.84L304,140z"/>
<path style="fill:#F5F7FA;" d="M256,252c11.44,0,22.4-2.72,32-7.52V276l-16,8l-16-8l-16,8l-16-8v-31.52
	C233.6,249.28,244.56,252,256,252z"/>
<path style="fill:#E6E9ED;" d="M272,284l16-8h24c22.16,0,40,17.92,40,40v40H160v-40c0-22.16,17.92-40,40-40h24l16,8l16-8L272,284z"
	/>
<path style="fill:#CCD1D9;" d="M312,276h-24l-1.344,0.672C305.608,279.848,320,296.192,320,316v40h32v-40
	C352,293.92,334.16,276,312,276z"/>
<path d="M160,324c-4.424,0-8-3.576-8-8c0-26.472,21.528-48,48-48c4.424,0,8,3.576,8,8s-3.576,8-8,8c-17.648,0-32,14.352-32,32
	C168,320.424,164.424,324,160,324z"/>
<path d="M224,284h-24c-4.424,0-8-3.576-8-8s3.576-8,8-8h24c4.424,0,8,3.576,8,8S228.424,284,224,284z"/>
<path d="M160,364c-4.424,0-8-3.576-8-8v-40c0-4.424,3.576-8,8-8s8,3.576,8,8v40C168,360.424,164.424,364,160,364z"/>
<path d="M352,324c-4.424,0-8-3.576-8-8c0-17.648-14.352-32-32-32c-4.424,0-8-3.576-8-8s3.576-8,8-8c26.472,0,48,21.528,48,48
	C360,320.424,356.424,324,352,324z"/>
<path d="M312,284h-24c-4.424,0-8-3.576-8-8s3.576-8,8-8h24c4.424,0,8,3.576,8,8S316.424,284,312,284z"/>
<path d="M352,364c-4.424,0-8-3.576-8-8v-40c0-4.424,3.576-8,8-8s8,3.576,8,8v40C360,360.424,356.424,364,352,364z"/>
<path d="M224,284c-4.424,0-8-3.576-8-8v-31.488c0-4.416,3.576-8,8-8s8,3.584,8,8V276C232,280.424,228.424,284,224,284z"/>
<path d="M288,284c-4.424,0-8-3.576-8-8v-31.488c0-4.416,3.576-8,8-8s8,3.584,8,8V276C296,280.424,292.424,284,288,284z"/>
<path d="M255.992,260C211.88,260,176,224.12,176,180.016c0-4.416,3.576-8,8-8s8,3.584,8,8c0,35.28,28.704,63.984,63.992,63.984
	C291.288,244,320,215.296,320,180.016c0-4.416,3.576-8,8-8s8,3.584,8,8C336,224.12,300.112,260,255.992,260z"/>
<path d="M184,188.408c-4.424,0-8-3.584-8-8V132c0-4.416,3.576-8,8-8s8,3.584,8,8v48.408C192,184.824,188.424,188.408,184,188.408z"
	/>
<path d="M328,188.016c-4.424,0-8-3.584-8-8V132c0-4.416,3.576-8,8-8s8,3.584,8,8v48.016C336,184.432,332.424,188.016,328,188.016z"
	/>
<path d="M328,139.992c-4.424,0-8-3.584-8-8C320,118.76,309.232,108,296,108c-4.424,0-8-3.584-8-8s3.576-8,8-8
	c22.056,0,40,17.944,40,39.992C336,136.408,332.424,139.992,328,139.992z"/>
<path d="M296,108c-4.424,0-8-3.584-8-8V68c0-4.416,3.576-8,8-8s8,3.584,8,8v32C304,104.416,300.424,108,296,108z"/>
<path d="M296,76h-48c-4.424,0-8-3.584-8-8s3.576-8,8-8h48c4.424,0,8,3.584,8,8S300.424,76,296,76z"/>
<path d="M184,140c-4.424,0-8-3.584-8-8c0-39.696,32.296-72,72-72c4.424,0,8,3.584,8,8s-3.576,8-8,8c-30.872,0-56,25.12-56,56
	C192,136.416,188.424,140,184,140z"/>
<path d="M327.992,164.2c-1.536,0-3.096-0.44-4.472-1.368l-24-16.2c-3.664-2.472-4.624-7.448-2.16-11.104
	c2.48-3.664,7.44-4.632,11.112-2.152l24,16.2c3.664,2.472,4.624,7.448,2.16,11.104C333.088,162.968,330.56,164.2,327.992,164.2z"/>
<path d="M260,156c-28.896,0-53.496-8.064-54.52-8.408c-4.184-1.392-6.456-5.912-5.072-10.104c1.392-4.184,5.904-6.48,10.112-5.08
	c0.232,0.08,23.264,7.592,49.488,7.592c25.424,0,40.32-7.104,40.472-7.176c3.952-1.928,8.752-0.304,10.696,3.656
	c1.944,3.952,0.344,8.72-3.592,10.68C306.84,147.52,289.488,156,260,156z"/>
<path d="M184.008,164.2c-2.568,0-5.096-1.232-6.64-3.52c-2.472-3.664-1.504-8.632,2.16-11.104l24-16.2
	c3.68-2.48,8.632-1.504,11.112,2.152c2.472,3.664,1.504,8.632-2.16,11.104l-24,16.2C187.104,163.76,185.544,164.2,184.008,164.2z"/>
<path d="M239.992,292c-1.2,0-2.424-0.272-3.568-0.84l-16-8c-3.952-1.976-5.552-6.784-3.576-10.736s6.784-5.544,10.736-3.576l16,8
	c3.952,1.976,5.552,6.784,3.576,10.736C245.752,290.384,242.928,292,239.992,292z"/>
<path d="M240.008,292c-2.936,0-5.76-1.616-7.168-4.424c-1.976-3.952-0.376-8.76,3.576-10.736l16-8
	c3.952-1.968,8.76-0.376,10.736,3.576s0.376,8.76-3.576,10.736l-16,8C242.432,291.728,241.208,292,240.008,292z"/>
<path d="M272.008,292c-2.936,0-5.76-1.616-7.168-4.424c-1.976-3.952-0.376-8.76,3.576-10.736l16-8
	c3.944-1.968,8.76-0.376,10.736,3.576s0.376,8.76-3.576,10.736l-16,8C274.432,291.728,273.208,292,272.008,292z"/>
<path d="M271.992,292c-1.2,0-2.424-0.272-3.568-0.84l-16-8c-3.952-1.976-5.552-6.784-3.576-10.736
	c1.984-3.952,6.784-5.544,10.736-3.576l16,8c3.952,1.976,5.552,6.784,3.576,10.736C277.752,290.384,274.928,292,271.992,292z"/>
<path d="M256.24,380c-4.424,0-8.04-3.576-8.04-8s3.536-8,7.952-8h0.088c4.416,0,8,3.576,8,8S260.656,380,256.24,380z"/>
<path d="M504,364H8.376c-4.424,0-8-3.576-8-8s3.576-8,8-8H504c4.424,0,8,3.576,8,8S508.424,364,504,364z"/>
<path d="M488,396H24c-13.232,0-24-10.768-24-24V52c0-13.232,10.768-24,24-24h464c13.232,0,24,10.768,24,24v320
	C512,385.232,501.232,396,488,396z M24,44c-4.416,0-8,3.592-8,8v320c0,4.416,3.584,8,8,8h464c4.416,0,8-3.584,8-8V52
	c0-4.408-3.584-8-8-8H24z"/>
<path d="M184.008,460c-0.64,0-1.296-0.08-1.944-0.24c-4.288-1.072-6.896-5.416-5.824-9.696l16-64
	c1.064-4.296,5.392-6.928,9.696-5.824c4.288,1.072,6.896,5.416,5.824,9.696l-16,64C190.848,457.576,187.592,460,184.008,460z"/>
<path d="M327.992,460c-3.584,0-6.84-2.424-7.752-6.064l-16-64c-1.08-4.28,1.528-8.624,5.824-9.696
	c4.272-1.104,8.624,1.528,9.696,5.824l16,64c1.08,4.28-1.528,8.624-5.824,9.696C329.288,459.92,328.632,460,327.992,460z"/>
<path d="M152,476c-4.424,0-8-3.576-8-8c0-13.232,10.768-24,24-24c4.424,0,8,3.576,8,8s-3.576,8-8,8c-4.416,0-8,3.584-8,8
	C160,472.424,156.424,476,152,476z"/>
<path d="M360,476c-4.424,0-8-3.576-8-8c0-4.416-3.584-8-8-8c-4.424,0-8-3.576-8-8s3.576-8,8-8c13.232,0,24,10.768,24,24
	C368,472.424,364.424,476,360,476z"/>
<path d="M344,460H168c-4.424,0-8-3.576-8-8s3.576-8,8-8h176c4.424,0,8,3.576,8,8S348.424,460,344,460z"/>
<path d="M152,484c-4.424,0-8-3.576-8-8v-8c0-4.424,3.576-8,8-8s8,3.576,8,8v8C160,480.424,156.424,484,152,484z"/>
<path d="M360,484H152c-4.424,0-8-3.576-8-8s3.576-8,8-8h208c4.424,0,8,3.576,8,8S364.424,484,360,484z"/>
<path d="M360,484c-4.424,0-8-3.576-8-8v-8c0-4.424,3.576-8,8-8s8,3.576,8,8v8C368,480.424,364.424,484,360,484z"/>
<path d="M48,188c-4.424,0-8-3.584-8-8v-32c0-4.416,3.576-8,8-8s8,3.584,8,8v32C56,184.416,52.424,188,48,188z"/>
<path d="M144,188c-4.424,0-8-3.584-8-8v-32c0-4.416,3.576-8,8-8s8,3.584,8,8v32C152,184.416,148.424,188,144,188z"/>
<path d="M96,188c-13.232,0-24-10.768-24-24s10.768-24,24-24s24,10.768,24,24S109.232,188,96,188z M96,156c-4.416,0-8,3.592-8,8
	s3.584,8,8,8s8-3.592,8-8S100.416,156,96,156z"/>
<path d="M96,116c-4.424,0-8-3.584-8-8V76c0-4.416,3.576-8,8-8s8,3.584,8,8v32C104,112.416,100.424,116,96,116z"/>
<path d="M96,260c-4.424,0-8-3.584-8-8v-32c0-4.416,3.576-8,8-8s8,3.584,8,8v32C104,256.416,100.424,260,96,260z"/>
<path d="M48,260c-13.232,0-24-10.768-24-24s10.768-24,24-24s24,10.768,24,24S61.232,260,48,260z M48,228c-4.416,0-8,3.592-8,8
	s3.584,8,8,8s8-3.592,8-8S52.416,228,48,228z"/>
<path d="M144,260c-13.232,0-24-10.768-24-24s10.768-24,24-24s24,10.768,24,24S157.232,260,144,260z M144,228c-4.416,0-8,3.592-8,8
	s3.584,8,8,8s8-3.592,8-8S148.416,228,144,228z"/>
<path d="M48,116c-13.232,0-24-10.768-24-24s10.768-24,24-24s24,10.768,24,24S61.232,116,48,116z M48,84c-4.416,0-8,3.592-8,8
	s3.584,8,8,8s8-3.592,8-8S52.416,84,48,84z"/>
<path d="M144,116c-13.232,0-24-10.768-24-24s10.768-24,24-24s24,10.768,24,24S157.232,116,144,116z M144,84c-4.416,0-8,3.592-8,8
	s3.584,8,8,8s8-3.592,8-8S148.416,84,144,84z"/>
<path d="M48,332c-4.424,0-8-3.576-8-8v-32c0-4.424,3.576-8,8-8s8,3.576,8,8v32C56,328.424,52.424,332,48,332z"/>
<path d="M96,332c-13.232,0-24-10.768-24-24s10.768-24,24-24s24,10.768,24,24S109.232,332,96,332z M96,300c-4.416,0-8,3.584-8,8
	s3.584,8,8,8s8-3.584,8-8S100.416,300,96,300z"/>
<path d="M464,188c-4.424,0-8-3.584-8-8v-32c0-4.416,3.576-8,8-8s8,3.584,8,8v32C472,184.416,468.424,188,464,188z"/>
<path d="M368,188c-4.424,0-8-3.584-8-8v-32c0-4.416,3.576-8,8-8s8,3.584,8,8v32C376,184.416,372.424,188,368,188z"/>
<path d="M416,188c-13.232,0-24-10.768-24-24s10.768-24,24-24s24,10.768,24,24S429.232,188,416,188z M416,156c-4.416,0-8,3.592-8,8
	s3.584,8,8,8s8-3.592,8-8S420.416,156,416,156z"/>
<path d="M416,116c-4.424,0-8-3.584-8-8V76c0-4.416,3.576-8,8-8s8,3.584,8,8v32C424,112.416,420.424,116,416,116z"/>
<path d="M416,260c-4.424,0-8-3.584-8-8v-32c0-4.416,3.576-8,8-8s8,3.584,8,8v32C424,256.416,420.424,260,416,260z"/>
<path d="M464,260c-13.232,0-24-10.768-24-24s10.768-24,24-24s24,10.768,24,24S477.232,260,464,260z M464,228c-4.416,0-8,3.592-8,8
	s3.584,8,8,8s8-3.592,8-8S468.416,228,464,228z"/>
<path d="M368,260c-13.232,0-24-10.768-24-24s10.768-24,24-24s24,10.768,24,24S381.232,260,368,260z M368,228c-4.416,0-8,3.592-8,8
	s3.584,8,8,8s8-3.592,8-8S372.416,228,368,228z"/>
<path d="M464,116c-13.232,0-24-10.768-24-24s10.768-24,24-24s24,10.768,24,24S477.232,116,464,116z M464,84c-4.416,0-8,3.592-8,8
	s3.584,8,8,8s8-3.592,8-8S468.416,84,464,84z"/>
<path d="M368,116c-13.232,0-24-10.768-24-24s10.768-24,24-24s24,10.768,24,24S381.232,116,368,116z M368,84c-4.416,0-8,3.592-8,8
	s3.584,8,8,8s8-3.592,8-8S372.416,84,368,84z"/>
<path d="M464,332c-4.424,0-8-3.576-8-8v-32c0-4.424,3.576-8,8-8s8,3.576,8,8v32C472,328.424,468.424,332,464,332z"/>
<path d="M416,332c-13.232,0-24-10.768-24-24s10.768-24,24-24s24,10.768,24,24S429.232,332,416,332z M416,300c-4.416,0-8,3.584-8,8
	s3.584,8,8,8s8-3.584,8-8S420.416,300,416,300z"/>
<g>
</g>
<g>
</g>
<g>
</g>
<g>
</g>
<g>
</g>
<g>
</g>
<g>
</g>
<g>
</g>
<g>
</g>
<g>
</g>
<g>
</g>
<g>
</g>
<g>
</g>
<g>
</g>
<g>
</g>
</svg>
